<?xml version="1.0" encoding="iso-8859-1"?>
<!-- Generator: Adobe Illustrator 24.1.2, SVG Export Plug-In . SVG Version: 6.00 Build 0)  -->
<svg version="1.1" id="Layer_1" xmlns="http://www.w3.org/2000/svg" xmlns:xlink="http://www.w3.org/1999/xlink" x="0px" y="0px"
	 viewBox="0 0 48 48" style="enable-background:new 0 0 48 48;" xml:space="preserve">
<radialGradient id="SVGID_1_" cx="8.0394" cy="35.9148" r="4.9857" gradientTransform="matrix(1 0 0 -1 0 50)" gradientUnits="userSpaceOnUse">
	<stop  offset="0" style="stop-color:#4B4B4B"/>
	<stop  offset="0.5307" style="stop-color:#393939"/>
	<stop  offset="1" style="stop-color:#252525"/>
</radialGradient>
<path style="fill:url(#SVGID_1_);" d="M7.02,13.444c0.231-0.533,0.868-0.739,1.897-0.705S7.81,16.188,7.81,16.188
	S6.517,14.605,7.02,13.444z"/>
<radialGradient id="SVGID_2_" cx="43.423" cy="22.5759" r="5.0281" gradientTransform="matrix(0.9775 0.2109 0.2109 -0.9775 -3.567 40.4171)" gradientUnits="userSpaceOnUse">
	<stop  offset="0" style="stop-color:#4B4B4B"/>
	<stop  offset="0.5307" style="stop-color:#393939"/>
	<stop  offset="1" style="stop-color:#252525"/>
</radialGradient>
<path style="fill:url(#SVGID_2_);" d="M44.652,28.075c0.232-0.533-0.052-1.138-0.779-1.868s-1.766,3.162-1.766,3.162
	S44.146,29.236,44.652,28.075z"/>
<radialGradient id="SVGID_3_" cx="24.569" cy="26" r="19.5" gradientTransform="matrix(1 0 0 -1 0 50)" gradientUnits="userSpaceOnUse">
	<stop  offset="0.7361" style="stop-color:#D8DBDC"/>
	<stop  offset="0.8571" style="stop-color:#D6D9DA"/>
	<stop  offset="0.9006" style="stop-color:#D0D2D3"/>
	<stop  offset="0.9317" style="stop-color:#C4C7C8"/>
	<stop  offset="0.9568" style="stop-color:#B4B6B7"/>
	<stop  offset="0.9783" style="stop-color:#9FA0A1"/>
	<stop  offset="0.997" style="stop-color:#868686"/>
	<stop  offset="1" style="stop-color:#818181"/>
</radialGradient>
<circle style="fill:url(#SVGID_3_);" cx="24.569" cy="24" r="19.5"/>
<linearGradient id="SVGID_4_" gradientUnits="userSpaceOnUse" x1="15.7337" y1="40.2111" x2="25.622" y2="11.7978" gradientTransform="matrix(1 0 0 -1 0 50)">
	<stop  offset="0" style="stop-color:#42A3F0"/>
	<stop  offset="0.0147" style="stop-color:#41A1EE"/>
	<stop  offset="0.687" style="stop-color:#1F5BA8"/>
	<stop  offset="1" style="stop-color:#11408C"/>
</linearGradient>
<path style="fill:url(#SVGID_4_);" d="M29.468,7.212c-1.55-0.45-3.204-0.697-4.899-0.697c-9.81,0-17.487,7.831-17.487,17.485
	c0,7.987,5.355,14.725,12.673,16.812c4.099-2.684,13.991-9.597,13.991-13.754c0-4.37-13.984-5.244-13.984-9.177
	C19.762,14.474,24.764,10.64,29.468,7.212z"/>
<radialGradient id="SVGID_5_" cx="15.5153" cy="41.8668" r="42.0511" gradientTransform="matrix(1 0 0 -1 0 50)" gradientUnits="userSpaceOnUse">
	<stop  offset="0" style="stop-color:#FFFFFF"/>
	<stop  offset="0.17" style="stop-color:#F9F9F9"/>
	<stop  offset="0.3861" style="stop-color:#EAEAEA"/>
	<stop  offset="0.627" style="stop-color:#D0D0D0"/>
	<stop  offset="0.8843" style="stop-color:#ACACAC"/>
	<stop  offset="1" style="stop-color:#999999"/>
</radialGradient>
<path style="fill:url(#SVGID_5_);" d="M29.45,7.225c-4.698,3.426-9.688,7.254-9.688,10.657c0,3.933,13.984,4.807,13.984,9.177
	c0,4.149-9.857,11.046-13.969,13.739c1.525,0.434,3.128,0.682,4.792,0.682c9.654,0,17.48-7.826,17.48-17.48
	C42.049,16.042,36.726,9.339,29.45,7.225z"/>
<path style="fill:#666666;" d="M43.768,28.783c-1.234,0.543-5.922,2.073-19.495-2.961S8.036,16.001,7.394,15.162
	c-0.252-0.329-0.412-0.849-0.401-1.385c0.002-0.114,0.009-0.219,0.027-0.333l-3.426,8.627c-0.247,0.987-1.036,2.32,5.38,7.156
	c7.452,5.577,18.243,8.623,24.677,9.279c6.939,0.707,7.502-1.283,7.502-1.283l3.42-8.933C44.43,28.431,44.191,28.597,43.768,28.783z
	"/>
<path style="fill:#313131;" d="M43.768,28.783c-1.234,0.543-5.922,2.073-19.495-2.961S8.036,16.001,7.394,15.162
	c-0.252-0.329-0.412-0.849-0.401-1.385c0.002-0.114,0.009-0.219,0.027-0.333l-0.824,2.074c0.103,0.696,0.353,1.35,0.82,1.819
	l-2.159,5.32c-0.889-1.273-0.534-2.419-0.528-2.437l-0.735,1.851c-0.247,0.987-1.036,2.32,5.38,7.156
	c7.452,5.577,18.243,8.623,24.677,9.279c6.939,0.707,7.502-1.283,7.502-1.283l3.499-9.147
	C44.422,28.509,44.191,28.597,43.768,28.783z M5.935,23.956l2.177-5.372c0.832,0.991,2.334,2.193,3.881,3.066L9.71,27.191
	C8.435,26.28,6.835,25.05,5.935,23.956z M17.233,31.527c-1.553-0.549-4.633-2.067-5.814-3.04l2.273-5.68
	c1.698,1.22,3.706,2.103,5.77,2.96L17.233,31.527z M26.268,34.905c-2.308-0.675-4.628-1.318-6.756-2.304l2.281-5.696
	c1.655,0.774,4.29,1.666,6.619,2.267L26.268,34.905z M34.871,36.562c-2.105-0.191-4.628-0.55-6.192-1.041l2.271-5.613
	c1.897,0.59,3.945,0.956,6.112,1.146L34.871,36.562z M40.553,36.241c-0.611,0.388-2.616,0.501-3.772,0.433l2.082-5.456
	c1.232,0.073,2.478-0.032,3.738-0.327L40.553,36.241z"/>
<path style="fill:#313131;" d="M14.791,24.413c-0.988,1.217-1.689,2.744-1.877,3.923c1.467,0.417,2.958,0.339,4.662-0.031
	C16.907,26.837,16.044,25.498,14.791,24.413z"/>
</svg>